<?xml version="1.0" encoding="UTF-8"?>






<svg id="Layer_2" data-name="Layer 2" xmlns="http://www.w3.org/2000/svg" width="170" viewBox="0 0 517.71 52.42">
  <defs>
    <style>
      .cls-1 {
        fill: #2a2e36;
      }
    </style>
  </defs>
  <g id="Layer_1-2" data-name="Layer 1">
    <g>
      <path class="cls-1" d="M13.46,49.1c4.18,2.23,8.93,3.31,14.26,3.31,4.61,0,8.71-.79,12.46-2.45,3.67-1.58,6.77-3.96,9.22-7.06l-9.07-8.21c-3.31,3.96-7.27,5.9-11.88,5.9-2.74,0-5.18-.58-7.34-1.8-2.16-1.15-3.82-2.88-4.97-5.04-1.15-2.16-1.73-4.68-1.73-7.56s.58-5.33,1.73-7.49c1.15-2.16,2.81-3.89,4.97-5.11,2.16-1.15,4.61-1.8,7.34-1.8,4.61,0,8.57,2.02,11.88,5.9l9.07-8.21c-2.45-3.02-5.54-5.4-9.22-7.06C36.43,.86,32.33,0,27.72,0,22.39,0,17.64,1.15,13.46,3.38c-4.18,2.23-7.49,5.33-9.86,9.29C1.15,16.7,0,21.17,0,26.21s1.15,9.58,3.6,13.54c2.38,4.03,5.69,7.13,9.86,9.36Z"/>
      <path class="cls-1" d="M65.75,1.01V51.41h14.26V1.01h-14.26Z"/>
      <path class="cls-1" d="M110.95,12.31V51.41h14.26V12.31h15.41V1.01h-45.14V12.31h15.48Z"/>
      <path class="cls-1" d="M181.65,33.34L200.95,1.01h-13.82l-11.95,20.02L163.22,1.01h-15.05l19.22,32.11v18.29h14.26v-18.07Z"/>
      <path class="cls-1" d="M241.36,50.9c3.82,1.01,7.78,1.51,11.88,1.51,4.75,0,8.86-.72,12.24-2.16,3.31-1.44,5.83-3.46,7.56-5.9,1.66-2.45,2.52-5.18,2.52-8.21,0-3.46-.94-6.26-2.81-8.28-1.87-2.02-4.03-3.53-6.55-4.46s-5.69-1.8-9.5-2.66c-3.46-.72-5.9-1.37-7.42-2.09-1.58-.65-2.3-1.66-2.3-3.02,0-1.3,.65-2.38,1.94-3.24,1.3-.86,3.31-1.3,6.19-1.3,4.46,0,9.14,1.3,13.97,3.89l4.39-10.58c-2.45-1.44-5.33-2.52-8.5-3.24-3.24-.72-6.48-1.15-9.79-1.15-4.9,0-9,.72-12.31,2.16s-5.83,3.46-7.49,5.9c-1.73,2.45-2.52,5.26-2.52,8.28,0,3.53,.86,6.34,2.74,8.35,1.8,2.09,3.96,3.6,6.55,4.54,2.52,.94,5.69,1.8,9.5,2.59,3.46,.79,5.9,1.51,7.49,2.23,1.58,.72,2.38,1.73,2.38,3.17,0,2.74-2.74,4.1-8.21,4.1-2.88,0-5.83-.43-8.78-1.37-3.02-.86-5.62-2.09-7.85-3.6l-4.68,10.51c2.38,1.73,5.47,3.02,9.36,4.03h0Z"/>
      <path class="cls-1" d="M332.04,1.01h-39.96V12.02h39.96V1.01Zm0,19.51h-39.96v10.66h39.96v-10.66Zm-39.96,19.87v11.02h39.96v-11.02h-39.96Z"/>
      <path class="cls-1" d="M386.02,35.57c3.1-1.51,5.54-3.6,7.27-6.34,1.73-2.74,2.59-5.9,2.59-9.58s-.94-7.06-2.74-9.86c-1.87-2.81-4.46-4.97-7.78-6.48-3.38-1.51-7.34-2.3-11.88-2.3h-23.04V12.24h22.18c2.88,0,5.11,.65,6.62,1.94,1.44,1.3,2.23,3.17,2.23,5.47s-.79,4.18-2.23,5.47c-1.51,1.3-3.74,1.87-6.62,1.87h-22.18v24.41h14.26v-13.39h7.78l9.14,13.39h15.26l-10.87-15.84Z"/>
      <path class="cls-1" d="M423.32,1.01h-15.41l14.33,33.7,7.7-17.64-6.62-16.06Zm27.65,0l-13.97,32.83-7.56,17.57h14.04L465.08,1.01h-14.11Z"/>
      <path class="cls-1" d="M517.71,1.01h-39.96V12.02h39.96V1.01Zm0,19.51h-39.96v10.66h39.96v-10.66Zm-39.96,19.87v11.02h39.96v-11.02h-39.96Z"/>
    </g>
  </g>
</svg>
