<?xml version="1.0" encoding="utf-8"?>
<!-- Generator: Adobe Illustrator 27.5.0, SVG Export Plug-In . SVG Version: 6.00 Build 0)  -->
<svg version="1.1" xmlns="http://www.w3.org/2000/svg" xmlns:xlink="http://www.w3.org/1999/xlink" x="0px" y="0px"
	 viewBox="0 0 750 500" style="enable-background:new 0 0 750 500;" xml:space="preserve">
<g id="BACKGROUND">
	<rect style="fill:#FFFFFF;" width="750" height="500"/>
</g>
<g id="OBJECTS">
	<g>
		<g>
			<path style="fill:#E0FFFD;" d="M11.963,432.2H717.27c0,0,91.228-254.71-108.41-340.184s-232.258,83.472-335.126,74.552
				C170.866,157.648,9.176,142.015,11.963,432.2z"/>
			<path style="opacity:0.34;fill:#E0FFFD;" d="M738.037,432.2H32.73c0,0-91.228-254.71,108.41-340.184
				s232.258,83.472,335.126,74.552C579.134,157.648,740.825,142.015,738.037,432.2z"/>
		</g>
		<g>
			<g>
				<path style="fill:#F54F59;" d="M386.392,210.325c-13.672-1.562-17.187,3.906-42.188,0c-25-3.906-37.109-1.172-50-5.469
					c-12.891-4.297-16.016-2.344-25.781-5.859c-3.587-1.291-5.901-3.426-7.404-5.61c-19.486,10.112-34.774,4.783-40.278,2.129
					c-0.592,1.146-1.474,2.19-2.806,2.895c-4.98,2.637-30.469,4.102-46.582,10.254s-33.984,0.293-51.856,3.223
					c-17.871,2.93-32.52-4.102-48.926,3.809c-14.816,7.143-28.971,20.24-36.759,27.894c0.496,2.409,1.309,5.089,2.581,7.964
					c0.516-0.337,1.036-0.555,1.561-0.604c6.25-0.586,10.352-3.516,14.844-3.516s32.813,2.148,40.43-0.195
					c7.617-2.344,59.18-0.977,69.727-1.367c10.547-0.391,17.187,2.734,16.406,19.922c-0.781,17.188,4.688,39.844,5.469,59.766
					c0.63,16.053,0.499,40.468,1.242,55.276c6.074,2.711,14.907,5.672,23.368,4.92c14.941-1.328,51.563-1.016,68.848,1.62
					c11.446,1.746,17.44-0.725,20.986-2.438c0.875-4.118,8.031-2.565,6.651-10.159c-1.563-8.594-7.031-29.688-7.031-53.516
					c0-23.828,0-57.813,5.469-60.938c5.469-3.125,10.156-8.594,23.828-11.719c13.672-3.125,32.813-3.516,44.531-4.688
					s19.922-0.391,25.391-4.688c5.469-4.297,10.938-12.5,10.938-12.5S400.064,211.887,386.392,210.325z"/>
				<path style="fill:#F54F59;" d="M386.392,210.325c-13.672-1.562-17.187,3.906-42.188,0c-25-3.906-37.109-1.172-50-5.469
					c-12.891-4.297-16.016-2.344-25.781-5.859c-3.587-1.291-5.901-3.426-7.404-5.61c-19.486,10.112-34.774,4.783-40.278,2.129
					c-0.592,1.146-1.474,2.19-2.806,2.895c-4.98,2.637-30.469,4.102-46.582,10.254c-7.318,2.794-14.999,3.109-22.877,2.896
					c0.443,12.608-3.46,24.453-11.37,34.291c11.481,0.058,21.756,0.171,25.849,0.02c10.547-0.391,17.187,2.734,16.406,19.922
					c-0.781,17.188,4.688,39.844,5.469,59.766c0.63,16.053,0.499,40.468,1.242,55.276c6.074,2.711,14.907,5.672,23.368,4.92
					c14.941-1.328,51.563-1.016,68.848,1.62c11.446,1.746,17.44-0.725,20.986-2.438c0.875-4.118,8.031-2.565,6.651-10.159
					c-1.563-8.594-7.031-29.688-7.031-53.516c0-23.828,0-57.813,5.469-60.938c5.469-3.125,10.156-8.594,23.828-11.719
					c13.672-3.125,32.813-3.516,44.531-4.688s19.922-0.391,25.391-4.688c5.469-4.297,10.938-12.5,10.938-12.5
					S400.064,211.887,386.392,210.325z"/>
				<path style="fill:#030746;" d="M278.286,387.376c-17.285-2.637-53.906-2.948-68.848-1.62c-8.461,0.752-17.294-2.21-23.368-4.92
					c0.179,3.569,0.408,6.587,0.712,8.787c0,0-5.078,40.234-4.688,42.578h123.828c0,0-5.078-17.578-4.688-26.953
					c0.391-9.375-0.781-11.719-1.953-18.359c-0.136-0.772-0.125-1.408-0.01-1.95C295.726,386.651,289.732,389.122,278.286,387.376z"
					/>
				<path style="fill:none;stroke:#030746;stroke-width:0.293;stroke-miterlimit:10;" d="M178.126,253.775
					c0,0-1.136-12.005,0-22.552"/>
				<path style="fill:none;stroke:#030746;stroke-width:0.293;stroke-miterlimit:10;" d="M174.052,248.122
					c0,0-7.387-8.695-7.094-14.555"/>
				<path style="fill:none;stroke:#030746;stroke-width:0.293;stroke-miterlimit:10;" d="M201.129,201.848
					c0,0-4.875-2.851-4.582,22.93"/>
				<path style="fill:none;stroke:#030746;stroke-width:0.293;stroke-miterlimit:10;" d="M203.286,201.754c0,0,0,6.91,3.809,17.457
					c3.809,10.547,2.93,14.355,2.93,14.355"/>
				<path style="fill:none;stroke:#030746;stroke-width:0.293;stroke-miterlimit:10;" d="M182.589,302.733
					c0,0,17.65,11.694,27.523,23.413c9.873,11.719,14.561,12.598,14.561,12.598"/>
				<path style="fill:none;stroke:#030746;stroke-width:0.293;stroke-miterlimit:10;" d="M304.36,260.325
					c0,0-8.496-20.313-10.547-30.859"/>
				<path style="fill:none;stroke:#030746;stroke-width:0.293;stroke-miterlimit:10;" d="M305.653,259.534
					c0.617-0.402-0.414-21.28,1.344-23.33"/>
				<path style="fill:none;stroke:#030746;stroke-width:0.293;stroke-miterlimit:10;" d="M276.278,201.071
					c0,0-0.922,15.796,1.715,26.05"/>
				<path style="fill:none;stroke:#030746;stroke-width:0.293;stroke-miterlimit:10;" d="M367.638,244.356
					c0,0,14.945-9.617,17.875-14.89"/>
				<path style="fill:none;stroke:#030746;stroke-width:0.293;stroke-miterlimit:10;" d="M299.966,376.829
					c0,0-2.637,4.113-10.254,5.572c-7.617,1.459-14.355-4.102-29.004-2.786c-14.648,1.316-27.246,0.123-27.246,0.123"/>
				<g>
					
						<line style="fill:none;stroke:#FFFFFF;stroke-width:0.293;stroke-miterlimit:10;" x1="240.786" y1="404.954" x2="240.786" y2="432.2"/>
					<path style="fill:none;stroke:#FFFFFF;stroke-width:0.293;stroke-miterlimit:10;" d="M187.466,397.63
						c0,0,49.512-11.133,108.399,0"/>
					<path style="fill:none;stroke:#FFFFFF;stroke-width:0.293;stroke-miterlimit:10;" d="M194.985,432.2l-0.586-20.117
						c0.586,0,17.773-6.055,33.789,0l-2.344,20.117"/>
					<path style="fill:none;stroke:#FFFFFF;stroke-width:0.293;stroke-miterlimit:10;" d="M286.753,432.2l0.586-20.117
						c-0.586,0-17.773-6.055-33.789,0l2.344,20.117"/>
				</g>
				<path style="fill:#F7BEB3;" d="M261.019,193.386c-2.588-3.762-2.694-11.213-2.694-11.213s-32.794-2.995-36.895,1.692
					c0,0,0.932,8.511-0.689,11.65C226.245,198.169,241.533,203.499,261.019,193.386z"/>
				<path style="fill:#F7BEB3;" d="M267.886,162.229c-1.942-0.194-2.906,0.763-3.344,1.435c1.267-2.555,5.831-12.815,3.93-24.726
					c-2.197-13.77-16.553-22.119-28.857-22.412c-12.305,0.293-26.66,8.643-28.857,22.412c-1.901,11.911,2.663,22.171,3.93,24.726
					c-0.438-0.672-1.402-1.629-3.344-1.435c-2.93,0.293-2.197,8.936,0.879,13.916c3.076,4.98,6.299,0,6.299,0
					c1.465,2.539,3.223,8.789,3.223,8.789l17.871,8.789l17.871-8.789c0,0,1.758-6.25,3.223-8.789c0,0,3.223,4.98,6.299,0
					C270.083,171.165,270.815,162.522,267.886,162.229z"/>
				<path style="fill:#FFB63F;" d="M229.263,112.657c0,0,7.813-9.766,23.047-6.641c15.234,3.125,8.709,11.914,8.709,11.914
					s11.985,5.531,7.697,8.398c-4.288,2.867,5.078,6.074,1.953,17.578c-3.125,11.504-9.082,28.593-11.133,34.81
					c-2.051,6.217-7.391,8.101-17.383,9.721c-9.992,1.62-20.411-3.504-20.411-3.504s-11.128-25.312-12.253-37.857
					S205.239,111.876,229.263,112.657z"/>
			</g>
			<g>
				<path style="fill:#01ACA3;" d="M216.543,214.211c-3.048-1.648-5.76-3.569-7.89-5.247c-4.714,3.362-10.33,7.132-13.901,10.547
					c-6.773,6.478-18.257,17.079-33.275,18.846c-15.018,1.767-25.324-4.417-31.214-2.945c-5.889,1.472-12.662-11.484-22.674-14.429
					s-10.012-2.945-10.012-2.945s-2.107-0.347-4.528-1.362c-7.146,1.314-7.423,4.271-18.146,1.656
					c-5.736-1.399-10.458-2.395-13.853-3.06c-0.485,1.511-1.239,2.717-2.932,3.256c-2.598,0.827-4.77,1.369-6.088,1.67
					c-0.85,0.194-1.544,0.781-1.896,1.579c-0.004,0.008-0.007,0.017-0.011,0.026c-1.413,3.195-5.901,11.966-16.739,23.424
					c-13.742,14.527-8.638,42.796-7.067,59.679c1.57,16.883,1.57,41.618,6.675,56.538c3.112,9.097,8.119,18.187,11.555,23.902
					c2.917-18.796,16.214-34.22,16.214-34.22c-0.274-1.621-1.067-4.903-2.103-8.914c-3.106-12.034-8.391-30.631-8.391-30.631
					s10.601,17.668,13.349,27.876c0.087,0.322,0.137,0.662,0.175,1.008c4.321-0.785,11.716-1.005,23.48,1.747
					c17.197,4.023,43.367-2.645,53.642-5.637c-0.392-5.092-0.577-10.653-0.343-17.535c0.785-23.165-5.889-45.937-5.889-45.937
					s25.913,1.178,38.084-1.963c12.171-3.141,19.631-16.49,28.269-21.202c7.377-4.024,16.183-21.357,20.798-28.9
					C220.514,218.025,218.787,215.424,216.543,214.211z"/>
				<path style="fill:#FFB63F;" d="M87.272,342.212c-11.764-2.752-19.159-2.532-23.48-1.747c0.317,2.863-0.97,6.5-3.031,10.661
					c0,0-13.297,15.424-16.214,34.22c-0.418,1.993-0.671,3.977-0.696,5.937c-0.258,19.631,0.117,40.917,0.117,40.917h36.924
					l-4.711-15.396l7.852,15.396h60.464c0,0,0.785-30.709,0-56.229c-0.552-17.939-2.654-27.346-3.583-39.396
					C130.639,339.567,104.469,346.235,87.272,342.212z"/>
				<path style="fill:none;" d="M63.616,339.457c-2.748-10.208-13.349-27.876-13.349-27.876s9.396,33.062,10.493,39.545
					C63.07,346.463,64.422,342.451,63.616,339.457z"/>
				<g>
					<path style="fill:none;stroke:#030746;stroke-width:0.2945;stroke-miterlimit:10;" d="M50.267,311.581
						c0,0-3.392-9.03-5.721-19.926c-2.328-10.895-4.095-29.447-4.095-29.447"/>
					<path style="fill:none;stroke:#030746;stroke-width:0.2945;stroke-miterlimit:10;" d="M134.681,273.104
						c0,0-24.441,1.178-36.219-6.478c-11.779-7.656-15.901-22.38-16.196-25.913"/>
					<path style="fill:none;stroke:#030746;stroke-width:0.2945;stroke-miterlimit:10;" d="M75.7,247.601
						c-1.031-0.008-21.676,9.338-28.242,14.492"/>
					<path style="fill:none;stroke:#030746;stroke-width:0.2945;stroke-miterlimit:10;" d="M126.258,234.568
						c0,0,8.423,4.083,12.84,8.205c4.417,4.123,6.184,7.951,6.184,7.951"/>
					<path style="fill:none;stroke:#030746;stroke-width:0.2945;stroke-miterlimit:10;" d="M197.261,252.538
						c-0.533,0.442-8.987,0.248-16.643,2.309"/>
				</g>
				<g>
					<path style="fill:none;stroke:#030746;stroke-width:0.2945;stroke-miterlimit:10;" d="M76.18,416.804
						c0,0-9.423-10.993-6.675-25.521c2.748-14.527,5.104-21.202,8.245-31.017"/>
					<path style="fill:none;stroke:#030746;stroke-width:0.2945;stroke-miterlimit:10;" d="M66.168,349.306
						c0,0,5.693,4.123,9.619,4.123c3.926,0,25.324-2.945,37.299-4.123c11.975-1.178,20.024,0.196,20.613,0"/>
					<path style="fill:none;stroke:#030746;stroke-width:0.2945;stroke-miterlimit:10;" d="M83.64,371.205h42.796l-1.767,37.55
						c0,0-13.153,7.852-19.631,10.405c0,0-17.668-8.049-21.398-10.601C79.91,406.007,83.64,371.205,83.64,371.205z"/>
					<path style="fill:none;stroke:#030746;stroke-width:0.2945;stroke-miterlimit:10;" d="M51.196,368.473l12.654,2.731
						c0,0-8.872,23.416-10.05,29.894s-9.254,12.564-9.254,12.564"/>
				</g>
				<path style="fill:none;" d="M63.791,340.465c-1.263,0.229-2.262,0.505-3.031,0.771v9.89
					C62.821,346.965,64.108,343.328,63.791,340.465z"/>
				<path style="fill:none;" d="M58.658,342.212c1.035,4.011,1.828,7.293,2.103,8.914v-9.89
					C59.288,341.745,58.658,342.212,58.658,342.212z"/>
				<path style="fill:none;" d="M60.76,335.236v6c0.769-0.266,1.768-0.542,3.031-0.771c-0.038-0.346-0.088-0.685-0.175-1.008
					c-2.748-10.208-13.349-27.876-13.349-27.876s5.285,18.597,8.391,30.631c0,0,0.63-0.466,2.103-0.976V335.236z"/>
				<path style="fill:#9B634A;" d="M248.149,201.45c-2.159-2.356-4.417-1.57-5.006-3.534c-0.589-1.963-1.963-4.417-3.435-4.417
					s-2.356-3.828-4.81-4.613c-2.454-0.785-4.515,2.159-7.362,3.141c-2.846,0.982-4.123-1.374-7.362-0.196s-1.767,5.791-3.141,9.619
					c-0.65,1.81-4.153,4.498-8.381,7.513c2.13,1.678,4.842,3.599,7.89,5.247c2.244,1.213,3.972,3.814,5.29,6.828
					c0.789-1.289,1.458-2.3,1.974-2.902c3.534-4.123,11.19-4.908,17.472-8.245S250.308,203.806,248.149,201.45z"/>
				<path style="fill:#996244;" d="M100.424,181.421c-1.698-0.17-2.542,0.667-2.925,1.255c1.108-2.234,5.099-11.207,3.437-21.623
					c-1.922-12.042-14.476-19.344-25.237-19.6c-10.761,0.256-23.315,7.558-25.236,19.6c-1.662,10.416,2.329,19.389,3.437,21.623
					c-0.383-0.588-1.227-1.425-2.925-1.255c-2.562,0.256-1.922,7.814,0.769,12.17c2.69,4.356,5.508,0,5.508,0
					c0.662,1.147,2.143,5.208,3.421,8.868c1.358,3.89,1.632,8.106,0.586,12.091c-0.065,0.247-0.134,0.489-0.209,0.723
					c3.395,0.665,8.117,1.661,13.853,3.06c10.71,2.612,10.999-0.335,18.12-1.651c-1.401,0.259-4.528-2.697-5.302-3.682
					c-3.942-5.016,3.733-14.743,6.425-19.409c0,0,2.818,4.356,5.508,0C102.346,189.236,102.986,181.677,100.424,181.421z"/>
				<path style="fill:#030746;" d="M73.071,136.078c-0.732,0.08-1.463,0.193-2.191,0.34c-8.696,1.755-16.075,8.067-20.321,15.855
					c-4.504,8.26-5.728,17.859-6.744,27.212c-2.945,27.109-4.814,54.336-5.601,81.593c-0.027,0.934-0.02,1.964,0.594,2.669
					c0.519,0.596,1.344,0.804,2.119,0.958c3.391,0.672,6.869,0.904,10.32,0.686c0.385-4.785,0.77-9.569,1.155-14.354
					c0.38,3.598,0.759,7.196,1.139,10.794c0.103,0.98,0.25,2.051,0.973,2.721c0.619,0.574,1.515,0.712,2.354,0.807
					c4.462,0.504,8.978,0.527,13.445,0.068c0.103-6.36,0.206-12.72,0.308-19.081c0.824,6.459,1.647,12.918,2.471,19.376
					c9.453,0.82,18.983,0.743,28.421-0.23c-0.009-3.276-0.019-6.551-0.028-9.827c0.674,3.21,1.348,6.419,2.021,9.629
					c3.628,1.974,8.329-1.075,9.673-4.981c1.344-3.906,0.377-8.18-0.49-12.218c-3.554-16.552-4.878-34.071-4.831-51.213
					c0.042-15.444,3.113-32.474-5.934-46.158C95.665,141.258,84.249,134.852,73.071,136.078z"/>
				<g style="opacity:0.43;">
					<g>
						<path style="fill:#FFFFFF;" d="M52.387,251.037l-0.461-13.351c-0.138-4.451-0.261-8.903-0.275-13.357
							c-0.052-8.907,0.128-17.817,0.71-26.707c0.575-8.89,1.801-17.744,3.723-26.448c0.478-2.175,1.011-4.343,1.567-6.496
							c0.539-2.158,1.04-4.331,1.672-6.47c0.637-2.135,1.423-4.241,2.518-6.189c1.105-1.937,2.59-3.673,4.418-4.955l0.017,0.024
							c-1.808,1.302-3.262,3.047-4.338,4.986c-1.065,1.95-1.821,4.053-2.429,6.188c-0.604,2.139-1.077,4.314-1.59,6.482
							c-0.525,2.167-1.084,4.317-1.557,6.492c-1.927,8.688-3.152,17.524-3.842,26.398c-0.7,8.878-0.778,17.792-0.648,26.693
							l0.543,26.709L52.387,251.037z"/>
					</g>
					<g>
						<path style="fill:#FFFFFF;" d="M70.606,246.348c-0.478-4.165-0.842-8.342-1.174-12.522c-0.333-4.179-0.623-8.362-0.814-12.551
							c-0.407-8.375-0.623-16.758-0.673-25.143c-0.038-8.384,0.229-16.78,1.121-25.126c0.452-4.17,1.098-8.327,2.105-12.403
							c1.028-4.048,2.358-8.128,4.843-11.535l0.023,0.018c-2.435,3.432-3.705,7.513-4.678,11.563
							c-0.946,4.078-1.528,8.231-2.009,12.389c-0.897,8.329-1.166,16.716-1.244,25.095c-0.067,8.383,0.25,16.764,0.734,25.131
							l0.793,12.548c0.301,4.18,0.635,8.358,1.002,12.534L70.606,246.348z"/>
					</g>
					<g>
						<path style="fill:#FFFFFF;" d="M101.47,255.667c-0.563-4.485-1.07-8.977-1.572-13.469c-0.504-4.492-1.005-8.984-1.439-13.483
							l-2.645-26.991c-0.895-8.996-1.701-18.001-2.354-27.019c-0.174-2.254-0.34-4.508-0.456-6.766
							c-0.126-2.257-0.266-4.513-0.336-6.773c-0.087-2.259-0.192-4.517-0.184-6.779c0.004-1.13-0.05-2.261,0.001-3.391l0.168-3.387
							l0.029,0.003l-0.126,3.386c-0.037,1.128,0.03,2.259,0.04,3.388c0.02,2.259,0.151,4.515,0.266,6.772
							c0.097,2.257,0.264,4.511,0.418,6.765c0.149,2.254,0.286,4.51,0.465,6.762c0.646,9.015,1.449,18.019,2.229,27.025
							c0.777,9.006,1.738,17.995,2.706,26.983l2.82,26.972L101.47,255.667z"/>
					</g>
					<g>
						<path style="fill:#FFFFFF;" d="M92.479,256.942c-0.376-3.647-0.694-7.3-1.011-10.952c-0.318-3.652-0.631-7.305-0.884-10.963
							l-1.559-21.942c-0.538-7.313-0.978-14.633-1.331-21.958c-0.169-3.663-0.297-7.328-0.355-10.995
							c-0.072-3.666-0.061-7.336,0.113-10.999l0.029,0.001c-0.171,7.331,0.195,14.657,0.498,21.979
							c0.346,7.323,0.783,14.641,1.206,21.96c0.435,7.319,1.016,14.628,1.62,21.935l0.863,10.964l0.84,10.966L92.479,256.942z"/>
					</g>
				</g>
			</g>
			<g>
				<g>
					<path style="fill:#F54F59;" d="M148.475,211.561c-9.469-0.255-19.223-1.273-28.978,0.326
						c-17.871,2.93-32.52-4.102-48.926,3.809c-14.816,7.143-28.971,20.24-36.759,27.894c0.496,2.409,1.309,5.089,2.581,7.964
						c0.516-0.337,1.036-0.555,1.561-0.604c6.25-0.586,10.352-3.516,14.844-3.516s32.252-4.378,39.869-6.722
						c4.661-1.434,40.75-2.333,58.855-2.241C148.172,219.378,148.918,224.17,148.475,211.561z"/>
					<path style="fill:#F7BEB3;" d="M31.508,245.872c-7.031,7.031-10.937,27.734-8.203,28.125
						c2.505,0.358,7.468-18.772,13.087-22.443c-1.272-2.875-2.085-5.555-2.581-7.964C32.975,244.412,32.19,245.19,31.508,245.872z"
						/>
				</g>
				<path style="fill:none;stroke:#030746;stroke-width:0.293;stroke-miterlimit:10;" d="M92.666,240.713
					c0,0-5.073-8.276-10.401-9.432"/>
			</g>
			<g>
				<path style="fill:#FFB63F;" d="M527.371,310.765c0.044-0.42,0.336-1.013,0.936-1.962c2.783-4.406-5.797-2.319-12.058-8.811
					c-6.261-6.493-16.927-13.449-20.637-19.942c-3.71-6.493-13.797-38.608-29.449-45.913c-14.418-6.729-37.97-4.019-42.683-9.259
					c-17.077,3.998-26.87,2.258-32.005,0.185c-1.4,1.503-3.331,2.675-6.006,3.161c-11.478,2.087-28.174,3.478-38.956,6.956
					s-17.739,19.13-24,27.826c-6.261,8.696-14.609,27.826-32,35.826c-11.482,5.282-14.169,8.895-14.67,10.741
					c2.158,0.938,4.56,2.92,5.975,7.694c1.701,5.742,1.322,14.989,0.77,21.313c0.072,0.072,0.13,0.153,0.157,0.252
					c0.696,2.551,8.116,4.406,12.29-1.855c4.174-6.261,17.391-8.116,23.536-15.536c6.145-7.42,30.724-33.971,30.724-33.971
					s2.551,29.681-2.319,44.985c-4.87,15.304-5.333,20.406-4.638,26.666c0.645,5.801,1.884,10.797,2.063,11.501
					c3.505-0.567,8.595-1.489,16.024-2.921c23.432-4.517,65.193-3.764,86.603-3.506c-2.898-10.279,7.357-24.047,8.237-40.32
					c0.927-17.159,2.783-30.145,2.783-30.145s8.116,19.014,17.623,25.275c9.507,6.261,4.406,0.696,15.536,9.043
					c11.13,8.348,19.014,9.043,19.246,6.029c0.232-3.014,0.232-3.014,0.232-3.014s0.076,0.043,0.218,0.12
					c-0.131-1.204-0.218-2.632-0.218-4.352C510.683,320.772,520.067,313.777,527.371,310.765z"/>
				<path style="fill:#FFB63F;" d="M456.48,231.065c-13.527-2.879-29.246-2.01-33.002-6.186c-17.077,3.998-26.87,2.257-32.005,0.185
					c-1.4,1.503-3.331,2.675-6.006,3.161c-11.478,2.087-28.174,3.478-38.956,6.956c-10.783,3.478-17.739,19.13-24,27.826
					c-6.261,8.696-14.609,27.826-32,35.826c-11.482,5.282-14.169,8.895-14.67,10.741c2.158,0.938,4.56,2.92,5.975,7.694
					c1.701,5.742,1.322,14.99,0.77,21.313c0.072,0.072,0.13,0.153,0.157,0.252c0.696,2.551,8.116,4.406,12.29-1.855
					c4.174-6.261,17.391-8.116,23.536-15.536c6.145-7.42,30.724-33.971,30.724-33.971s2.551,29.681-2.319,44.985
					c-4.87,15.304-5.333,20.406-4.638,26.666c0.645,5.801,1.884,10.797,2.063,11.501c3.505-0.567,8.595-1.489,16.024-2.921
					c23.432-4.517,65.193-3.764,86.603-3.506c-2.898-10.279,7.357-24.047,8.237-40.32c0.74-13.699,2.071-24.729,2.578-28.624
					C452.568,275.138,449.417,251.235,456.48,231.065z"/>
				<path style="fill:#F54F59;" d="M360.424,367.701c-7.428,1.432-12.518,2.354-16.024,2.921c0.014,0.056,0.024,0.093,0.024,0.093
					s2.087,1.587-2.319,31.536c-4.406,29.949-4.406,29.949-4.406,29.949h59.594l1.623-10.007l3.014,10.007h62.144
					c0,0-11.826-55.919-16.464-66.354c-0.24-0.539-0.427-1.091-0.584-1.651C425.617,363.937,383.856,363.184,360.424,367.701z"/>
				<g>
					<path style="fill:none;stroke:#030746;stroke-width:0.293;stroke-miterlimit:10;" d="M351.206,375.701
						c0,0,67.999-7.909,92.695-4.303"/>
					<path style="fill:none;stroke:#030746;stroke-width:0.293;stroke-miterlimit:10;" d="M398.916,422.193
						c0,0,0.58-40.579,0-46.492"/>
					<polyline style="fill:none;stroke:#030746;stroke-width:0.293;stroke-miterlimit:10;" points="342.105,402.252 
						382.684,398.947 375.032,432.2 					"/>
					<polyline style="fill:none;stroke:#030746;stroke-width:0.293;stroke-miterlimit:10;" points="456.926,400.116 410.51,400.116 
						422.684,432.048 					"/>
				</g>
				<path style="fill:#F7BEB3;" d="M423.478,224.879c-0.403-0.448-0.685-0.948-0.794-1.524c-1.391-7.304-1.391-11.826-1.391-11.826
					h-26.435c0,0,1.22,8.588-3.385,13.534C396.609,227.136,406.401,228.876,423.478,224.879z"/>
				<path style="fill:#9B634A;" d="M281.816,317.267c-1.415-4.774-3.816-6.756-5.975-7.694c-0.258,0.95,0.062,1.433,0.062,1.433
					s-61.912,27.478-68.173,28.521c-6.261,1.043-12.869-4.174-21.217-3.478c-8.348,0.696-11.942-1.391-15.072,0.696
					c-3.13,2.087,3.246,3.014,2.203,4.174c-1.043,1.159-7.652,2.087-7.304,6.261c0.348,4.174,1.971,5.797,1.971,5.797
					s0,4.986,2.087,6.377s0.927,3.362,4.406,6.145s4.638,3.71,9.739,1.623c5.101-2.087,18.319-10.551,23.652-12.29
					c5.333-1.739,38.26-4.986,48-8.464c9.361-3.343,24.605-9.574,26.393-7.788C283.138,332.256,283.517,323.009,281.816,317.267z"/>
				<path style="fill:none;stroke:#030746;stroke-width:0.293;stroke-miterlimit:10;" d="M349.293,287.47
					c0,0,3.826-22.377,3.826-30.724"/>
				<path style="fill:none;stroke:#030746;stroke-width:0.293;stroke-miterlimit:10;" d="M283.052,308.224
					c0,0,6.4,14.663,4.328,23.652"/>
				<path style="fill:none;stroke:#030746;stroke-width:0.293;stroke-miterlimit:10;" d="M319.745,320.049
					c0,0,5.201-14.956,4.853-21.565"/>
				<path style="fill:none;stroke:#030746;stroke-width:0.293;stroke-miterlimit:10;" d="M458.046,293.731
					c0,0-2.667-24.811-2.667-34.203"/>
				<path style="fill:none;stroke:#030746;stroke-width:0.293;stroke-miterlimit:10;" d="M344.05,342.382
					c0,0,9.069-16.615,21.939-20.517"/>
				<path style="fill:#01ACA3;" d="M376.342,138.269c0,0-14.126,9.009-19.229,41.939s11.601,38.628,0.806,60.424
					c-10.794,21.796,5.026,43.266,28.563,42.366c23.536-0.9,14.128-10.017,37.859-7.464c23.731,2.553,31.508-12.908,21.829-49.642
					c-9.68-36.734-5.665-33.272-0.812-60.878C450.211,137.407,402.079,85.648,376.342,138.269z"/>
				<g>
					<path style="fill:#01ACA3;" d="M435.762,147.07c0.309,1.364,0.922,2.655,1.459,3.957l1.699,3.889
						c1.114,2.603,2.236,5.21,3.222,7.873c1.965,5.319,3.685,10.79,4.395,16.472c0.343,2.835,0.441,5.717,0.095,8.563
						c-0.142,1.425-0.469,2.828-0.858,4.203c-0.438,1.377-0.969,2.664-1.26,4.037c-0.284,1.366-0.43,2.769-0.329,4.165
						c0.091,1.397,0.415,2.77,0.845,4.102c0.858,2.678,2.25,5.15,3.48,7.705c1.248,2.543,2.414,5.179,3.099,7.976
						c0.377,1.388,0.586,2.816,0.765,4.245c0.123,1.434,0.183,2.877,0.108,4.314c-0.121,2.876-0.615,5.722-1.342,8.491
						c-0.732,2.768-1.669,5.48-2.907,8.082c-1.253,2.582-2.777,5.09-4.839,7.164c-1.051,1.012-2.185,1.95-3.466,2.672
						c-1.281,0.713-2.662,1.249-4.096,1.549c-2.886,0.584-5.856,0.164-8.558-0.76c-2.711-0.944-5.213-2.389-7.425-4.169l0.074-0.091
						c2.29,1.644,4.865,2.885,7.532,3.695c2.668,0.802,5.512,1.039,8.184,0.429c1.331-0.315,2.599-0.845,3.773-1.537
						c1.173-0.7,2.211-1.606,3.174-2.578c1.883-2.001,3.343-4.394,4.518-6.91c1.196-2.51,2.102-5.176,2.857-7.865
						c0.747-2.691,1.265-5.447,1.421-8.226c0.165-2.778-0.047-5.572-0.675-8.288c-0.613-2.72-1.619-5.35-2.776-7.922
						c-1.155-2.572-2.423-5.128-3.291-7.852c-0.893-2.715-1.092-5.667-0.52-8.476c0.272-1.408,0.812-2.755,1.194-4.085
						c0.326-1.36,0.59-2.736,0.672-4.135c0.23-2.79,0.011-5.6-0.408-8.369c-0.824-5.548-2.415-10.976-4.278-16.296
						c-0.943-2.659-1.917-5.311-2.946-7.947c-0.516-1.317-1.015-2.643-1.5-3.975c-0.464-1.337-1.005-2.662-1.205-4.089
						L435.762,147.07z"/>
				</g>
				<g>
					<path style="fill:#01ACA3;" d="M388.317,131.083c-2.64,1.702-5.161,3.583-7.651,5.489c-1.257,0.938-2.46,1.946-3.684,2.924
						c-1.188,1.022-2.396,2.021-3.564,3.063c-4.684,4.154-9.048,8.671-12.867,13.61c-1.93,2.455-3.665,5.058-5.196,7.782
						c-0.423,0.66-0.731,1.379-1.068,2.083l-1.002,2.12c-0.353,0.701-0.544,1.459-0.825,2.187c-0.236,0.742-0.411,1.502-0.604,2.256
						c-0.639,3.052-0.588,6.238,0.09,9.282c0.655,3.057,1.887,5.956,3.284,8.752c1.388,2.806,2.971,5.522,4.413,8.335
						c0.72,1.408,1.392,2.847,1.988,4.329c0.573,1.492,1.022,3.043,1.299,4.639c0.263,1.601,0.274,3.252,0.042,4.871
						c-0.203,1.633-0.813,3.177-1.507,4.643c-1.53,2.936-3.714,5.172-5.225,7.894c-1.604,2.643-3.006,5.445-3.706,8.428
						c-0.736,2.961-0.706,6.112,0.351,8.987c1.032,2.883,2.928,5.427,5.128,7.621c2.208,2.201,4.669,4.162,7.228,5.987l-0.065,0.098
						c-2.647-1.697-5.25-3.5-7.577-5.66c-2.307-2.153-4.405-4.684-5.573-7.723c-1.194-3.023-1.304-6.421-0.593-9.564
						c0.664-3.18,2.153-6.071,3.771-8.798c1.553-2.783,3.761-5.186,5.173-7.826c0.659-1.356,1.244-2.77,1.446-4.269
						c0.231-1.487,0.245-3.012,0.017-4.52c-0.474-3.019-1.663-5.921-3.004-8.738c-1.349-2.822-2.861-5.587-4.184-8.456
						c-1.343-2.856-2.45-5.844-3.109-8.945c-0.649-3.102-0.658-6.33-0.084-9.447c0.602-3.132,1.97-6.023,3.32-8.871
						c1.454-2.81,3.108-5.522,4.997-8.062c3.77-5.094,8.27-9.594,13.053-13.705c4.81-4.087,9.966-7.761,15.428-10.898
						L388.317,131.083z"/>
				</g>
				<g style="opacity:0.28;">
					<g>
						<path style="fill:#FFFFFF;" d="M409.055,120.293c5.808,3.224,11.196,7.237,15.875,11.969
							c4.639,4.724,8.622,10.351,10.39,16.823c0.911,3.208,1.22,6.588,0.871,9.903c-0.163,1.661-0.455,3.294-0.696,4.938
							l-0.713,4.931c-0.918,6.579-1.56,13.199-1.863,19.833c-0.263,6.631-0.096,13.3,0.962,19.852
							c0.962,6.576,3.693,12.736,4.903,19.299c1.379,6.504,2.132,13.166,1.954,19.82c-0.063,3.325-0.434,6.651-1.166,9.895
							c-0.736,3.236-1.851,6.42-3.627,9.242l-0.025-0.016c1.75-2.834,2.835-6.018,3.543-9.251c0.703-3.24,1.046-6.559,1.081-9.875
							c0.053-3.315-0.092-6.637-0.479-9.932c-0.368-3.296-0.857-6.581-1.561-9.824c-0.69-3.244-1.496-6.467-2.525-9.622
							c-1.015-3.168-1.828-6.407-2.363-9.693c-1.062-6.579-1.165-13.267-0.873-19.903c0.32-6.642,1.064-13.252,1.929-19.84
							l0.685-4.937c0.232-1.644,0.515-3.286,0.667-4.934c0.327-3.296,0.005-6.648-0.917-9.827
							c-1.816-6.395-5.714-12.007-10.302-16.76c-4.63-4.752-9.982-8.803-15.763-12.066L409.055,120.293z"/>
					</g>
					<g>
						<path style="fill:#FFFFFF;" d="M391.484,128.91c-8.32,9.788-15.255,20.777-20.321,32.571
							c-2.498,5.909-4.401,12.088-5.376,18.438c-0.999,6.344-1.046,12.831-0.199,19.192c0.46,3.177,1.095,6.326,1.852,9.447
							c0.76,3.12,1.611,6.222,2.24,9.382c0.626,3.149,0.997,6.407,0.543,9.62c-0.155,0.792-0.248,1.604-0.454,2.381l-0.599,2.337
							l-1.257,4.654c-0.833,3.101-1.588,6.224-2.12,9.385c-0.525,3.157-0.826,6.375-0.561,9.572
							c0.241,3.194,0.999,6.345,2.276,9.288c1.299,2.946,3.217,5.555,5.315,7.982l-0.021,0.02c-2.12-2.411-4.065-5.009-5.395-7.956
							c-1.307-2.944-2.098-6.107-2.368-9.319c-0.542-6.464,0.95-12.862,2.599-19.047l1.261-4.652l0.6-2.332
							c0.207-0.776,0.296-1.569,0.451-2.352c0.451-3.168,0.089-6.394-0.532-9.53c-0.629-3.144-1.459-6.251-2.202-9.379
							c-0.741-3.13-1.36-6.29-1.802-9.477c-1.66-12.79,0.521-25.907,5.544-37.739c2.457-5.949,5.548-11.62,8.998-17.045
							c1.733-2.709,3.547-5.365,5.47-7.942c1.913-2.583,3.907-5.109,6.035-7.518L391.484,128.91z"/>
					</g>
					<g>
						<path style="fill:#FFFFFF;" d="M407.485,132.795c4.464,3.672,7.867,8.565,10.052,13.906c1.149,2.659,1.829,5.493,2.321,8.339
							c0.15,1.438,0.409,2.87,0.375,4.32l0.043,2.169c-0.019,0.722-0.098,1.442-0.144,2.164c-0.058,0.72-0.097,1.443-0.171,2.161
							l-0.257,2.147l-0.5,4.296c-0.313,2.866-0.623,5.733-0.805,8.61c-0.197,2.876-0.263,5.761-0.167,8.641
							c0.106,2.881,0.36,5.753,0.683,8.617c0.69,5.724,1.658,11.411,2.602,17.1c0.244,1.421,0.478,2.844,0.677,4.274
							c0.194,1.43,0.459,2.852,0.577,4.292c0.136,1.437,0.322,2.87,0.416,4.311l0.258,4.323c0.252,5.77,0.04,11.557-0.549,17.298
							c-0.599,5.738-1.493,11.459-2.999,17.032l-0.028-0.008c1.451-5.583,2.29-11.308,2.834-17.042
							c0.529-5.739,0.677-11.511,0.456-17.268l-0.253-4.313c-0.092-1.437-0.277-2.867-0.411-4.301
							c-0.116-1.437-0.379-2.855-0.571-4.282c-0.197-1.426-0.429-2.849-0.672-4.271c-0.946-5.69-1.84-11.392-2.498-17.126
							c-0.309-2.869-0.548-5.746-0.639-8.631c-0.079-2.886,0.007-5.772,0.171-8.652c0.163-2.881,0.455-5.752,0.749-8.622
							l0.473-4.301l0.244-2.149c0.069-0.717,0.104-1.435,0.157-2.152c0.405-5.729-0.373-11.568-2.56-16.9
							c-2.147-5.324-5.503-10.211-9.884-13.959L407.485,132.795z"/>
					</g>
					<g>
						<path style="fill:#FFFFFF;" d="M400.559,126.955c-3.57,5.358-6.864,10.897-9.943,16.548
							c-3.067,5.657-5.901,11.444-8.362,17.389c-2.426,5.947-4.522,12.085-5.47,18.457c-0.461,3.176-0.625,6.428-0.112,9.605
							c0.565,3.162,1.177,6.335,2.309,9.349c1.072,3.029,2.501,5.921,4.17,8.668c1.64,2.757,3.525,5.411,4.705,8.445
							c1.161,3.045,1.345,6.377,0.937,9.576l-0.371,2.396l-0.442,2.371c-0.285,1.582-0.538,3.171-0.758,4.763
							c-0.856,6.368-1.31,12.815-0.917,19.237c0.202,3.205,0.586,6.413,1.384,9.531c0.792,3.107,1.947,6.166,3.795,8.811
							l-0.024,0.017c-1.874-2.634-3.059-5.691-3.88-8.8c-0.826-3.12-1.239-6.333-1.469-9.545
							c-0.453-6.435-0.061-12.908,0.827-19.289c0.221-1.596,0.477-3.188,0.764-4.774l0.445-2.376l0.37-2.376
							c0.406-3.17,0.227-6.446-0.913-9.447c-1.165-2.988-3.024-5.646-4.653-8.422c-1.658-2.764-3.079-5.681-4.138-8.728
							c-1.119-3.033-1.714-6.218-2.263-9.389c-0.494-3.197-0.306-6.452,0.121-9.639c0.911-6.393,2.975-12.555,5.374-18.525
							c2.403-5.982,5.296-11.754,8.413-17.389c3.125-5.632,6.462-11.148,10.073-16.48L400.559,126.955z"/>
					</g>
					<g>
						<path style="fill:#FFFFFF;" d="M405.611,268.742c1.508-11.664,2.294-23.43,2.101-35.185
							c-0.128-5.873-0.535-11.757-1.599-17.54c-0.512-2.895-1.249-5.746-1.939-8.604l-2.12-8.565
							c-1.423-5.702-2.732-11.469-3.226-17.348c-0.531-5.872-0.452-11.771-0.283-17.651c0.202-5.883,0.683-11.759,1.494-17.589
							c0.773-5.838,1.986-11.601,3.164-17.362l0.029,0.005c-1.125,5.774-2.283,11.544-3,17.382
							c-0.751,5.832-1.168,11.701-1.401,17.573c-0.174,5.873-0.259,11.765,0.264,17.617c0.493,5.857,1.724,11.622,3.115,17.334
							c1.359,5.723,2.849,11.416,4.012,17.186c1.103,5.785,1.551,11.675,1.712,17.556c0.165,5.885-0.035,11.775-0.434,17.645
							c-0.4,5.871-0.984,11.731-1.86,17.549L405.611,268.742z"/>
					</g>
				</g>
			</g>
			<g>
				<path style="fill:#F7BEB3;" d="M320.899,253.494c2.159-2.356,4.417-1.57,5.006-3.534c0.589-1.963,1.963-4.417,3.435-4.417
					c1.472,0,2.356-3.828,4.81-4.613c2.454-0.785,4.515,2.159,7.362,3.141c2.846,0.982,4.123-1.374,7.362-0.196
					s1.767,5.791,3.141,9.619c0.65,1.81,4.153,4.498,8.381,7.513c-2.13,1.678-4.842,3.599-7.89,5.247
					c-2.244,1.213-3.972,3.814-5.29,6.828c-0.789-1.289-1.458-2.3-1.974-2.902c-3.534-4.123-11.19-4.908-17.472-8.245
					C321.488,258.598,318.74,255.85,320.899,253.494z"/>
				<path style="fill:#030746;" d="M722.496,304.236c-1.953-6.25-3.125-12.891-14.063-15.234
					c-10.938-2.344-23.828-12.5-37.109-16.406c-13.281-3.906-42.188-19.531-52.734-33.594
					c-10.547-14.063-18.75-21.094-41.797-26.563c-20.19-4.791-28.688,2.108-31.535-5.037c-11.887,6.475-24.724,6.537-33.015,5.565
					c-0.549,1.334-1.505,2.508-3.028,3.378c-8.203,4.688-31.055,3.516-51.563,23.438c-20.508,19.922-43.066,35.742-50.684,43.652
					c-7.617,7.91-20.04,2.93-29.502-9.375c-8.142-10.588-12.099-11.851-17.338-16.29c-4.024,2.015-11.058,6.555-16.704,14.659
					c0.441,0.948,0.909,2.05,1.435,3.389c3.223,8.203,36.621,46.875,51.27,50.391c14.648,3.516,36.035-6.738,54.492-17.285
					c18.457-10.547,24.316-14.941,28.125-14.941s10.547,20.508,7.91,37.793c-2.637,17.285-8.789,14.941-4.395,33.106
					s4.98,7.91,2.051,29.004c-0.158,1.135-0.312,2.251-0.464,3.355c17.795,1.417,77.877,5.624,110.532,0.771
					c-0.164-2.73-0.417-5.27-0.79-7.447c-2.344-13.672,5.078-62.891,11.328-78.516c6.25-15.625,5.859-25.391,5.859-25.391
					s26.563,8.203,45.313,19.531c18.75,11.328,53.125,6.25,56.25,10.938c0.206,0.309,0.382,0.59,0.537,0.85
					c1.907-0.882,4.691-1.968,8.053-2.278C722.513,311.958,723.463,307.331,722.496,304.236z"/>
				<path style="fill:#F7BEB3;" d="M715.464,321.814c1.577,0.591,3.851-2.302,5.465-6.115c-3.361,0.31-6.146,1.396-8.053,2.278
					C715.076,321.667,712.545,320.72,715.464,321.814z"/>
				<path style="fill:#01ACA3;" d="M483.847,397.24c-2.677,19.413-4.469,33.791-3.637,34.96h113.379c0,0,1.656-19.768,0.79-34.189
					C561.724,402.864,501.642,398.657,483.847,397.24z"/>
				<g>
					<path style="fill:none;stroke:#FFFFFF;stroke-width:0.293;stroke-miterlimit:10;" d="M478.745,293.982
						c0,0,9.766-26.465,24.609-32.715"/>
					<path style="fill:none;stroke:#FFFFFF;stroke-width:0.293;stroke-miterlimit:10;" d="M610.777,286.658
						c0,0,5.078-34.247,3.906-44.141"/>
					<path style="fill:none;stroke:#FFFFFF;stroke-width:0.293;stroke-miterlimit:10;" d="M671.324,272.596
						c0,0,8.594,9.375,6.25,16.797"/>
					<path style="fill:none;stroke:#FFFFFF;stroke-width:0.293;stroke-miterlimit:10;" d="M622.953,290.87
						c0,0,10.773-0.697,21.905,3.112c11.133,3.809,15.527,3.516,15.527,3.516"/>
					<path style="fill:none;stroke:#FFFFFF;stroke-width:0.293;stroke-miterlimit:10;" d="M401.921,286.658
						c-2.278,3.223,2.703,8.789-6.087,20.215"/>
					<path style="fill:none;stroke:#FFFFFF;stroke-width:0.293;stroke-miterlimit:10;" d="M398.878,287.23
						c0,0-0.407,8.228-3.043,10.274"/>
					<path style="fill:none;stroke:#FFFFFF;stroke-width:0.293;stroke-miterlimit:10;" d="M490.027,272.997
						c0,0,6.882-23.838,9.226-25.01"/>
					<path style="fill:none;stroke:#FFFFFF;stroke-width:0.293;stroke-miterlimit:10;" d="M484.492,373
						c0,0,13.003-14.467,27.847-10.56"/>
					<path style="fill:none;stroke:#FFFFFF;stroke-width:0.293;stroke-miterlimit:10;" d="M482.888,367.385
						c0.189,0.722,15.389-26.43,32.967-23.696"/>
				</g>
				
					<line style="fill:none;stroke:#030746;stroke-width:0.293;stroke-miterlimit:10;" x1="551.109" y1="415.565" x2="551.109" y2="432.2"/>
				<polyline style="fill:none;stroke:#030746;stroke-width:0.293;stroke-miterlimit:10;" points="534.702,432.2 534.702,419.08 
					495.444,417.322 495.444,432.2 				"/>
				<polyline style="fill:none;stroke:#030746;stroke-width:0.293;stroke-miterlimit:10;" points="594.498,415.565 567.515,417.322 
					567.515,432.2 				"/>
				<path style="fill:none;stroke:#030746;stroke-width:0.293;stroke-miterlimit:10;" d="M488.413,405.604
					c0,0,81.738-0.879,103.711,0"/>
				<path style="fill:#F7BEB3;" d="M551.236,169.93c-1.948,0.109-2.753,1.203-3.082,1.935c0.856-2.72,3.776-13.563,0.053-25.036
					c-4.303-13.263-19.779-19.289-31.98-17.673c-12.111,2.195-25,12.667-25.038,26.611c-0.033,12.062,6.064,21.491,7.712,23.819
					c-0.537-0.596-1.638-1.392-3.526-0.9c-2.849,0.743-0.787,9.168,3.023,13.612c3.81,4.444,6.223-0.975,6.223-0.975
					c0.822,1.019,1.815,2.759,2.664,4.374c1.052,2.001,1.881,3.81,1.881,3.81l0.315,0.098c1.948,3.86,4.268,9.701,2.76,13.362
					c8.292,0.972,21.129,0.91,33.015-5.565c-0.403-1.011-1.401-4.785-1.594-6.432c-0.635-5.398,0.902-10.615,3.174-15.674
					c1.153,0.982,3.925,2.711,5.687-1.481C554.791,178.418,554.176,169.766,551.236,169.93z"/>
				<path style="fill:#F54F59;" d="M553.897,153.509c-1.885-9.375-8.122-14.583-8.122-14.583c0.069-0.442,0.321-0.889,0.831-1.373
					c3.738-3.554-9.012-6.969-9.012-6.969s4.938-9.77-10.606-10.262c-15.544-0.492-21.584,10.459-21.584,10.459
					s-15.5-7.155-20.188,5.15c-4.688,12.305,3.72,20.283,3.72,20.283s-5.458,10.476,2.254,16.924
					c1.388,1.161,2.57,2.116,3.586,2.912c1.768,3.895,3.985,8.075,6.186,11.968c0.599,3.999,1.852,8.842,4.441,13.017
					c5.594,9.018,16.076,10.963,21.528,3.252c0,0,10.726,4.136,18.929-3.252c8.203-7.388,3.072-26.41,3.072-26.41
					S555.782,162.884,553.897,153.509z"/>
			</g>
			<g>
				<path style="fill:#9B634A;" d="M494.597,303.609c2.026-4.548,4.666-6.2,6.928-6.848c0.132,0.975-0.248,1.413-0.248,1.413
					s57.793,35.329,63.864,37.181c6.071,1.852,13.304-2.457,21.49-0.677s12.021,0.18,14.852,2.658s-3.612,2.565-2.729,3.85
					c0.883,1.286,7.314,3.069,6.424,7.161s-2.711,5.49-2.711,5.49s-0.651,4.943-2.902,6.05c-2.251,1.107-1.359,3.212-5.171,5.517
					s-5.083,3.073-9.868,0.337c-4.785-2.735-16.784-12.853-21.844-15.274c-5.06-2.421-37.282-9.94-46.483-14.661
					c-8.844-4.537-23.144-12.705-25.15-11.168C491.329,318.297,492.161,309.079,494.597,303.609z"/>
				<path style="fill:#FFB63F;" d="M516.248,299.992c-6.261-6.493-16.927-13.449-20.637-19.942c-0.023-0.041-0.05-0.095-0.074-0.138
					c-10.149,8.876-20.786,17.021-32.94,22.89c3.262,5.799,7.965,12.841,13.072,16.204c9.507,6.261,4.406,0.696,15.536,9.043
					c11.13,8.348,19.014,9.043,19.246,6.029c0.232-3.014,0.232-3.014,0.232-3.014s0.076,0.043,0.218,0.12
					c-0.131-1.204-0.218-2.632-0.218-4.354c0.001-4.008,3.504-7.404,6.327-9.796c2.312-1.959,13.057-5.513,11.818-9.896
					C528.069,304.452,518.546,302.374,516.248,299.992z"/>
				<path style="fill:none;stroke:#030746;stroke-width:0.293;stroke-miterlimit:10;" d="M506.161,329.789
					c0,0-3.478-12.174,12.869-21.565"/>
				<path style="fill:none;stroke:#030746;stroke-width:0.293;stroke-miterlimit:10;" d="M483.529,323.006
					c0,0,3.85-17.913,9.763-24.521"/>
			</g>
			<g>
				<path style="fill:#F7BEB3;" d="M595.671,251.669c-1.329,0.119-3.76-0.02-7.295-1.605c-5.664-2.539-42.188-20.313-53.32-25.977
					c-11.133-5.664-18.164-7.031-20.508-9.18c-2.344-2.148-5.42-6.543-11.865-5.371c-6.445,1.172-18.897,0.439-19.189,2.197
					s-4.98,2.93-4.541,4.688c0.439,1.758-2.637,3.955-2.197,5.127s1.611,1.318,1.611,1.318s-3.369,4.541-0.732,4.688
					s6.885-1.318,14.063-0.732c7.178,0.586,11.719,4.616,16.699,3.699c4.98-0.916,5.42-2.821,7.91-1.502
					c2.49,1.318,61.963,45.117,66.943,46.289c2.497,0.588,9.13,2.046,16.109,3.06C600.381,266.695,598.078,257.624,595.671,251.669z
					"/>
				<path style="fill:#F7BEB3;" d="M692.229,227.647c-1.898-11.659-1.899-11.664-1.899-11.664s-18.981,9.793-27.477,7.449
					c0,0-0.817,5.163-1.988,7.88c2.27,1.055,5.396,2.012,9.543,2.249C678.555,234.026,686.509,230.976,692.229,227.647z"/>
				<path style="fill:#FFB63F;" d="M708.39,369.053c-9.267,6.31-16.01,6.891-16.01,6.891c-16.113,5.566-45.41-1.172-61.231-5.566
					c-5.446-1.513-8.948-1.984-11.198-1.951c0.174,0.569,0.387,1.035,0.652,1.365c3.125,3.906-3.516,48.646-3.906,62.409h53.516
					l4.688-6.55v6.55h32.813c0,0,11.328-8.503,8.984-35.456C715.551,383.562,711.609,375.5,708.39,369.053z"/>
				<path style="fill:#F54F59;" d="M631.15,370.377c15.82,4.395,45.117,11.133,61.231,5.566c0,0,6.743-0.58,16.01-6.891
					c-3.363-6.734-5.937-11.706-3.705-18.891c4.368-14.063,25.781-41.602,22.559-68.262s-32.813-40.723-34.863-53.32
					c-0.052-0.321-0.102-0.628-0.152-0.933c-5.72,3.33-13.674,6.379-21.821,5.914c-4.148-0.237-7.273-1.195-9.543-2.249
					c-0.659,1.528-1.906,2.894-4.226,3.421c-6.445,1.465-21.387-0.879-29.883,5.273c-8.496,6.152-16.406,6.445-29.883,11.426
					c0,0-0.401,0.166-1.201,0.237c2.407,5.955,4.71,15.026,3.687,26.699c6.941,1.008,14.224,1.576,18.12,0.407
					c7.813-2.344,8.203,30.469,5.859,48.047c-2.146,16.091-5.269,35.446-3.386,41.603
					C622.202,368.393,625.704,368.864,631.15,370.377z"/>
				<path style="fill:none;stroke:#030746;stroke-width:0.293;stroke-miterlimit:10;" d="M674.9,425.651
					c0,0,8.984-19.238,4.883-35.938"/>
				<path style="fill:none;stroke:#030746;stroke-width:0.293;stroke-miterlimit:10;" d="M631.443,376.822
					c0,0,43.652,14.941,73.242,0"/>
				<path style="fill:none;stroke:#030746;stroke-width:0.293;stroke-miterlimit:10;" d="M631.344,390.69
					c2.894,0,35.265,0.723,35.265,0.723s-0.093,28.031-2.307,30.744s-15.325,7.595-15.325,7.595s-15.101-3.798-17.632-7.957
					C628.812,417.636,631.344,390.69,631.344,390.69z"/>
				<path style="fill:none;stroke:#030746;stroke-width:0.293;stroke-miterlimit:10;" d="M715.924,390.69h-3.133h-22.852
					c0,0,0.977,32.031,2.148,34.961s9.277,6.55,9.277,6.55s11.52-5.71,12.926-10.603"/>
				<g>
					<path style="fill:none;stroke:#030746;stroke-width:0.293;stroke-miterlimit:10;" d="M602.274,254.947
						c0,0,5.005,12.746,1.63,18.164"/>
					<path style="fill:none;stroke:#030746;stroke-width:0.293;stroke-miterlimit:10;" d="M620.933,280.527
						c0,0,8.459-3.607,19.885-9.466"/>
					<path style="fill:none;stroke:#030746;stroke-width:0.293;stroke-miterlimit:10;" d="M704.685,350.162
						c0,0-2.441-18.652-5.566-23.73"/>
					<path style="fill:none;stroke:#030746;stroke-width:0.293;stroke-miterlimit:10;" d="M619.45,359.69
						c0,0,0.958-7.672,11.993-9.528"/>
				</g>
				<path style="fill:#F7BEB3;" d="M698.675,186.188c-1.857,0.104-2.624,1.147-2.937,1.845c0.816-2.593,3.599-12.929,0.051-23.865
					c-4.102-12.643-18.854-18.387-30.484-16.846c-11.544,2.092-23.831,12.075-23.867,25.366
					c-0.032,11.497,5.781,20.486,7.351,22.705c-0.512-0.568-1.561-1.327-3.361-0.858c-2.716,0.708-0.75,8.739,2.882,12.975
					c3.632,4.236,5.932-0.93,5.932-0.93c0.783,0.971,1.73,2.63,2.539,4.169c1.003,1.908,1.793,3.632,1.793,3.632l2.292,4.948
					c1.857,3.679,1.438,8.492,0,11.981c7.904,0.926,19.74,0.708,31.071-5.465c-0.384-0.964-0.428-10.853-0.612-12.423
					c-0.605-5.145,0.992-7.765,3.157-12.588c1.099,0.936,3.742,2.584,5.421-1.412C702.063,194.279,701.477,186.032,698.675,186.188z
					"/>
				<g>
					<path style="fill:#030746;" d="M663.574,142.177c0,0,16.247-7.996,32.796,16.094c16.548,24.091,0.878,38.488,1.622,47.862
						c0.744,9.374-3.227,13.856-12.854,13.049c-9.626-0.807-7.272,6.412-22.125,7.972c-14.853,1.56-6.026-5.695-21.444-11.307
						c-15.418-5.612-18.673-19.891-14.51-36.667C631.222,162.405,623.8,143.303,663.574,142.177z"/>
					<g>
						<path style="fill:#030746;" d="M631.119,157.117c0.069,1.933-0.253,3.851-0.681,5.727c-0.457,1.871-0.998,3.729-1.718,5.517
							c-1.41,3.586-3.133,7.053-5.224,10.283c-1.045,1.612-2.219,3.158-3.158,4.761c-0.221,0.411-0.466,0.815-0.624,1.252
							l-0.269,0.646l-0.184,0.669c-0.22,0.893-0.266,1.844,0.028,2.715c0.273,0.87,0.807,1.658,1.49,2.296
							c0.701,0.622,1.487,1.147,2.307,1.619c1.648,0.939,3.432,1.63,5.182,2.404c1.756,0.763,3.527,1.549,5.175,2.604
							c1.651,1.031,3.195,2.37,4.255,4.102c0.295,0.413,0.474,0.892,0.701,1.344c0.197,0.465,0.335,0.956,0.489,1.438
							c0.086,0.496,0.216,0.99,0.261,1.491l0.095,1.487c0.071,1.875,0.16,3.758,0.589,5.559c0.336,1.824,1.049,3.546,2.088,5.025
							c1.037,1.486,2.499,2.65,4.161,3.47c1.66,0.828,3.476,1.396,5.325,1.835l5.587,1.277l-0.021,0.115
							c-1.897-0.246-3.796-0.477-5.69-0.813c-1.888-0.341-3.796-0.771-5.593-1.587c-1.793-0.801-3.464-2.018-4.677-3.626
							c-1.224-1.596-1.999-3.501-2.399-5.422c-0.455-1.924-0.563-3.883-0.591-5.824l-0.06-1.376
							c-0.03-0.452-0.141-0.889-0.204-1.336c-0.232-0.866-0.53-1.721-1.006-2.489c-0.918-1.553-2.278-2.849-3.824-3.895
							c-1.546-1.051-3.22-1.952-4.93-2.797c-1.714-0.839-3.445-1.67-5.119-2.629c-0.828-0.496-1.629-1.049-2.348-1.711
							c-0.694-0.683-1.315-1.484-1.629-2.436c-0.346-0.946-0.308-1.983-0.113-2.94l0.154-0.724l0.241-0.694
							c0.142-0.474,0.369-0.905,0.575-1.349c0.896-1.75,1.951-3.326,2.905-4.969c1.922-3.277,3.766-6.604,5.222-10.109
							c0.744-1.744,1.42-3.519,1.958-5.338c0.532-1.816,1.01-3.67,1.158-5.565L631.119,157.117z"/>
					</g>
					<g>
						<path style="fill:#030746;" d="M678.173,146.835c3.515,0.482,6.956,1.475,10.246,2.849c3.257,1.419,6.469,3.145,9.086,5.639
							c0.622,0.652,1.309,1.238,1.843,1.97c0.567,0.699,1.143,1.389,1.586,2.177l0.711,1.141c0.191,0.41,0.413,0.801,0.575,1.224
							c0.356,0.829,0.589,1.717,0.668,2.623c0.167,1.852-0.707,3.606-1.807,4.986c-1.113,1.4-2.359,2.661-3.445,4.025
							c-1.086,1.36-1.974,2.858-2.435,4.482c-0.492,1.618-0.458,3.344-0.184,5.014c0.289,1.68,0.879,3.301,1.574,4.892l2.13,4.843
							c1.382,3.248,2.849,6.468,3.831,9.944c0.11,0.439,0.194,0.891,0.281,1.336c0.059,0.455,0.087,0.922,0.108,1.382
							c-0.053,0.929-0.208,1.904-0.745,2.693c-0.218,0.416-0.565,0.737-0.856,1.088c-0.352,0.289-0.677,0.609-1.046,0.864
							c-0.375,0.246-0.733,0.514-1.117,0.738l-1.161,0.651l-0.06-0.101c1.42-1.005,2.954-2.038,3.724-3.533
							c0.429-0.721,0.494-1.565,0.494-2.384c-0.049-0.416-0.1-0.833-0.181-1.247c-0.117-0.413-0.201-0.829-0.324-1.241
							c-1.076-3.288-2.679-6.458-4.092-9.688c-0.714-1.615-1.426-3.233-2.108-4.864c-0.68-1.657-1.272-3.39-1.541-5.201
							c-0.269-1.801-0.227-3.71,0.384-5.462c0.561-1.77,1.648-3.291,2.832-4.62c1.173-1.351,2.524-2.505,3.614-3.869
							c0.546-0.677,1.037-1.399,1.367-2.191c0.331-0.79,0.472-1.657,0.384-2.508c-0.201-1.706-1.034-3.294-2.116-4.652
							c-0.473-0.73-1.073-1.361-1.659-1.999c-0.548-0.671-1.261-1.188-1.881-1.788c-2.616-2.268-5.627-4.082-8.799-5.543
							c-3.166-1.481-6.493-2.657-9.901-3.556L678.173,146.835z"/>
					</g>
				</g>
				<g style="opacity:0.45;">
					<g>
						<path style="fill:#FFFFFF;" d="M646.649,150.592c-2.724,2.123-4.77,4.983-6.474,7.954c-1.667,3.011-2.943,6.225-3.936,9.52
							c-1.928,6.6-3.314,13.448-3.185,20.351c0.081,3.435,0.568,6.894,1.833,10.084c0.703,1.548,1.501,3.1,2.723,4.304
							c1.168,1.245,2.516,2.335,3.909,3.335c2.786,2.017,5.839,3.646,8.697,5.595c1.428,0.973,2.789,2.064,3.965,3.337
							c1.178,1.27,2.126,2.744,2.815,4.328l-0.027,0.012c-1.429-3.168-4.001-5.63-6.872-7.501c-2.868-1.899-5.952-3.485-8.745-5.539
							c-1.404-1.011-2.755-2.106-3.943-3.377c-1.247-1.237-2.057-2.818-2.769-4.392c-1.286-3.24-1.698-6.738-1.746-10.183
							c-0.052-3.459,0.343-6.903,0.873-10.311c0.544-3.41,1.311-6.783,2.259-10.104c0.937-3.328,2.264-6.55,3.974-9.558
							c1.738-2.971,3.827-5.834,6.633-7.879L646.649,150.592z"/>
					</g>
					<g>
						<path style="fill:#FFFFFF;" d="M669.207,145c3.025,1.464,5.975,3.08,8.874,4.78c2.898,1.702,5.745,3.502,8.449,5.504
							c2.701,1.998,5.327,4.135,7.564,6.654c0.599,0.595,1.035,1.326,1.564,1.98c0.272,0.324,0.425,0.726,0.643,1.086
							c0.193,0.374,0.427,0.73,0.587,1.119c0.27,0.797,0.636,1.566,0.826,2.387c0.175,0.823,0.455,1.627,0.542,2.466
							c0.558,3.323,0.613,6.715,0.393,10.071c-0.223,3.36-0.715,6.697-1.417,9.989c-0.376,1.64-0.759,3.282-1.296,4.881
							c-0.25,0.805-0.56,1.591-0.886,2.371c-0.184,0.382-0.389,0.759-0.585,1.132c-0.196,0.366-0.424,0.715-0.582,1.102
							c-0.706,1.511-1.11,3.153-1.353,4.807c-0.241,1.656-0.348,3.338-0.286,5.015l-0.029,0.002
							c-0.099-1.678-0.049-3.367,0.172-5.037c0.223-1.668,0.606-3.329,1.303-4.876c0.155-0.395,0.383-0.756,0.579-1.132
							c0.188-0.373,0.38-0.737,0.556-1.113c0.311-0.774,0.608-1.554,0.845-2.358c0.507-1.594,0.912-3.222,1.283-4.856
							c0.705-3.277,1.201-6.602,1.43-9.947c0.217-3.341,0.237-6.714-0.285-10.026c-0.08-0.837-0.351-1.636-0.517-2.456
							c-0.181-0.818-0.538-1.583-0.799-2.377c-0.155-0.388-0.384-0.742-0.572-1.115c-0.213-0.359-0.36-0.759-0.629-1.084
							c-0.518-0.658-0.971-1.369-1.571-1.959c-2.256-2.483-4.898-4.583-7.611-6.548c-5.462-3.899-11.264-7.309-17.206-10.437
							L669.207,145z"/>
					</g>
					<g>
						<path style="fill:#FFFFFF;" d="M667.453,153.5c1.753,1.965,3.281,4.119,4.709,6.33c1.438,2.207,2.702,4.528,3.789,6.927
							c2.165,4.796,3.713,9.907,4.136,15.166l0.148,1.972l-0.043,1.978c-0.003,1.323-0.118,2.63-0.212,3.941
							c-0.175,2.622-0.313,5.246-0.369,7.872c-0.104,5.248-0.13,10.52,0.55,15.735l-0.029,0.005
							c-0.459-2.594-0.63-5.227-0.752-7.854c-0.115-2.63-0.134-5.263-0.054-7.894c0.062-2.631,0.207-5.259,0.388-7.884
							c0.089-1.312,0.229-2.624,0.254-3.932l0.075-1.965l-0.115-1.963c-0.15-2.62-0.666-5.21-1.36-7.74
							c-0.782-2.506-1.667-4.984-2.817-7.345c-2.241-4.742-5.012-9.244-8.319-13.33L667.453,153.5z"/>
					</g>
					<g>
						<path style="fill:#FFFFFF;" d="M651.93,154.974c-0.61,2.477-1.512,4.854-2.188,7.302c-0.709,2.437-1.324,4.901-1.858,7.38
							c-1.038,4.938-1.669,10.106-0.617,15.089c1.108,4.974,3.763,9.411,6.807,13.449c1.514,2.036,3.064,4.058,4.424,6.213
							c1.363,2.147,2.519,4.458,3.138,6.932l-0.028,0.008c-0.714-2.442-1.898-4.711-3.288-6.825
							c-1.393-2.118-2.979-4.102-4.476-6.159c-1.506-2.047-2.956-4.153-4.139-6.415c-1.19-2.256-2.065-4.678-2.595-7.17
							c-0.545-2.502-0.525-5.07-0.427-7.605c0.109-2.544,0.495-5.067,0.983-7.563c0.931-5.011,2.681-9.823,4.234-14.637H651.93z"/>
					</g>
					<g>
						<path style="fill:#FFFFFF;" d="M656.996,147.072c0.959,2.779,1.823,5.59,2.654,8.411c0.836,2.819,1.626,5.653,2.305,8.514
							c0.696,2.857,1.335,5.729,1.838,8.628c0.506,2.894,0.945,5.813,1.009,8.76c0.127,2.93,0.55,5.842,1.02,8.739
							c0.478,2.897,1.017,5.785,1.622,8.66c1.201,5.751,2.496,11.485,3.893,17.195l-0.028,0.007
							c-1.551-5.671-2.953-11.385-4.145-17.144c-1.143-5.762-2.311-11.556-2.522-17.453c-0.095-5.884-1.48-11.653-2.902-17.338
							c-1.454-5.692-3.055-11.347-4.772-16.97L656.996,147.072z"/>
					</g>
				</g>
			</g>
		</g>
	</g>
</g>
</svg>
